<?xml version="1.0" encoding="utf-8"?>
<svg width="49.858887px" height="79px" viewBox="0 0 49.858887 79" version="1.1" xmlns:xlink="http://www.w3.org/1999/xlink" xmlns="http://www.w3.org/2000/svg">
  <defs>
    <linearGradient gradientUnits="objectBoundingBox" x1="0.5" y1="0" x2="0.5" y2="1" id="gradient_1">
      <stop offset="0%" stop-color="#FF8C49" />
      <stop offset="100%" stop-color="#FF5E00" />
    </linearGradient>
  </defs>
  <path d="M13.8228 20.9931L0 7.67661L0 3.99805Q0 3.80164 0.0192517 3.60617Q0.0385034 3.4107 0.0768213 3.21807Q0.115139 3.02543 0.172155 2.83748Q0.22917 2.64952 0.304333 2.46806Q0.379497 2.2866 0.472084 2.11338Q0.564672 1.94016 0.673792 1.77685Q0.782913 1.61354 0.907515 1.46171Q1.03212 1.30988 1.171 1.171Q1.30988 1.03212 1.46171 0.907515Q1.61354 0.782913 1.77685 0.673792Q1.94016 0.564672 2.11338 0.472084Q2.2866 0.379497 2.46806 0.304333Q2.64952 0.22917 2.83748 0.172155Q3.02543 0.115139 3.21807 0.0768213Q3.4107 0.0385034 3.60617 0.0192517Q3.80164 0 3.99805 0L9.77344 0Q9.96949 0 10.1646 0.0191783Q10.3597 0.0383566 10.552 0.0765291Q10.7443 0.114702 10.9319 0.171502Q11.1196 0.228303 11.3007 0.303187Q11.4819 0.37807 11.6549 0.470319Q11.8279 0.562567 11.991 0.671296Q12.1541 0.780024 12.3058 0.904188Q12.4575 1.02835 12.5964 1.16676Q12.7352 1.30517 12.8598 1.4565Q12.9844 1.60783 13.0936 1.77062Q13.2028 1.93342 13.2956 2.10611Q13.3884 2.27881 13.4638 2.45975Q13.5392 2.6407 13.5966 2.82815Q13.6539 3.01561 13.6927 3.20778Q13.7314 3.39994 13.7512 3.59498Q13.7709 3.79002 13.7715 3.98605L13.8228 20.9931ZM41.1396 51.2359L1.03955 11.8046L0.894531 11.8046L0.894531 68.7221L14.2749 56.4983L20.0845 70.5081C21.1372 73.0469 24.0005 74.231 26.481 73.1534C28.9609 72.0758 30.1177 69.145 29.0649 66.6063L23.3169 52.7458L41.1396 51.2359ZM33.9023 40.3375L25.1855 31.9399L34.854 21.0944Q34.9943 20.937 35.1503 20.7953Q35.3063 20.6536 35.4763 20.5291Q35.6464 20.4045 35.8286 20.2986Q36.0108 20.1926 36.2031 20.1064Q36.3955 20.0202 36.5958 19.9547Q36.7962 19.8892 37.0023 19.8451Q37.2084 19.801 37.418 19.7789Q37.6276 19.7567 37.8384 19.7567L44.1802 19.7567Q44.4421 19.7567 44.7014 19.7942Q44.9606 19.8318 45.2118 19.9061Q45.463 19.9803 45.701 20.0898Q45.9389 20.1994 46.1587 20.3418Q46.3785 20.4843 46.5756 20.6568Q46.7727 20.8293 46.9431 21.0282Q47.1134 21.2272 47.2535 21.4485Q47.3936 21.6698 47.5005 21.9089Q47.6074 22.148 47.679 22.3999Q47.7505 22.6519 47.7852 22.9115Q47.82 23.1711 47.8171 23.4329Q47.8143 23.6948 47.7739 23.9536Q47.7336 24.2124 47.6566 24.4627Q47.5796 24.7131 47.4675 24.9498Q47.3554 25.1865 47.2106 25.4047Q47.0657 25.6229 46.8911 25.8181L33.9023 40.3375ZM26.7188 55.1538L35.9761 54.4052L49.1069 72.668Q49.2672 72.8909 49.3955 73.1336Q49.5238 73.3764 49.6177 73.6344Q49.7116 73.8924 49.7694 74.1608Q49.8271 74.4292 49.8477 74.703Q49.8682 74.9768 49.8511 75.2509Q49.834 75.5249 49.7795 75.794Q49.7251 76.0631 49.6344 76.3223Q49.5437 76.5815 49.4185 76.8258Q49.2932 77.0701 49.1358 77.2951Q48.9783 77.52 48.7916 77.7213Q48.6049 77.9225 48.3924 78.0964Q48.1799 78.2702 47.9456 78.4134Q47.7113 78.5566 47.4597 78.6664Q47.208 78.7762 46.9437 78.8505Q46.6794 78.9249 46.4074 78.9624Q46.1354 79 45.8608 79L37.0337 79Q37.0234 79 37.0171 78.9913L31.9766 71.9169C32.5571 70.3606 32.6948 68.7021 32.1406 67.3907L26.7188 55.1538ZM0 79L0 72.3625L13.1953 60.7561L13.8901 62.3901L13.8901 75.0019C13.8901 77.21 12.1006 79 9.89209 79L0 79Z" id="Shape" fill="url(#gradient_1)" fill-rule="evenodd" stroke="none" />
</svg>