<?xml version="1.0" encoding="utf-8"?>
<svg width="94px" height="57px" viewBox="0 0 94 57" version="1.1" xmlns:xlink="http://www.w3.org/1999/xlink" xmlns="http://www.w3.org/2000/svg">
  <defs>
    <linearGradient gradientUnits="objectBoundingBox" x1="0.5" y1="0" x2="0.5" y2="1" id="gradient_1">
      <stop offset="0%" stop-color="#504968" />
      <stop offset="100%" stop-color="#403562" />
    </linearGradient>
  </defs>
  <g id="Group">
    <g id="-hamhim-" transform="translate(0 26)">
      <g transform="translate(0, 6.036932)" id="-hamhim-" fill="#575071">
        <path d="M9.36543 16.2292L8.05317 24.2188L4.83051 24.2188L7.84565 6.03638L11.0012 6.03638L9.86591 12.8967L10.0307 12.8967Q10.6777 11.7371 11.8007 11.0718Q12.9238 10.4065 14.5046 10.4065Q16.6164 10.4065 17.6845 11.7371Q18.7526 13.0615 18.3498 15.5334L16.8972 24.2188L13.6745 24.2188L15.0417 16.0339Q15.2614 14.6545 14.6755 13.8916Q14.0956 13.1226 12.8444 13.1226Q11.5566 13.1226 10.5861 13.9343Q9.62177 14.7461 9.36543 16.2292ZM22.1294 24.4934Q20.1885 24.4934 19.0532 23.4497Q17.918 22.3999 18.2415 20.3918Q18.5039 18.8538 19.3828 18.0115Q20.2678 17.1631 21.5129 16.7786Q22.7642 16.3879 24.1008 16.2476Q25.9319 16.0522 26.7498 15.8752Q27.5737 15.6982 27.6897 15.0208L27.6897 14.9658Q27.8484 13.9648 27.3662 13.4155Q26.8901 12.8662 25.7732 12.8662Q24.6013 12.8662 23.8018 13.3789Q23.0022 13.8855 22.636 14.5935L19.7246 14.1663Q20.5547 12.3047 22.2698 11.3586Q23.9849 10.4065 26.1333 10.4065Q27.1099 10.4065 28.0437 10.6384Q28.9836 10.8643 29.7039 11.4014Q30.4302 11.9324 30.772 12.8418Q31.1138 13.7451 30.8879 15.094L29.3682 24.2188L26.2798 24.2188L26.5972 22.345L26.4934 22.345Q25.9258 23.2056 24.8333 23.8525Q23.7407 24.4934 22.1294 24.4934ZM23.3501 22.1313Q24.7966 22.1313 25.7915 21.3013Q26.7925 20.4651 26.9817 19.3298L27.2441 17.7185Q27.0122 17.8894 26.4446 18.0176Q25.877 18.1458 25.2483 18.2373Q24.6257 18.3228 24.1985 18.3838Q23.0999 18.5364 22.3003 18.9758Q21.5007 19.4092 21.3604 20.3369Q21.22 21.2158 21.7815 21.6736Q22.343 22.1313 23.3501 22.1313ZM30.718 24.2188L32.9885 10.5835L36.0708 10.5835L35.6802 12.8967L35.8511 12.8967Q36.4675 11.7371 37.5601 11.0718Q38.6526 10.4065 40.0198 10.4065Q41.3992 10.4065 42.2415 11.0718Q43.0898 11.7371 43.2852 12.8967L43.4316 12.8967Q44.0603 11.7615 45.2566 11.084Q46.459 10.4065 47.9482 10.4065Q49.8159 10.4065 50.8047 11.5967Q51.7996 12.7869 51.4211 15.0635L49.8953 24.2188L46.6787 24.2188L48.1374 15.564Q48.3328 14.2944 47.7468 13.7024Q47.167 13.1104 46.1904 13.1104Q45.0369 13.1104 44.2617 13.8306Q43.4927 14.5508 43.3157 15.7166L41.8874 24.2188L38.7319 24.2188L40.209 15.4297Q40.3677 14.3738 39.8428 13.7451Q39.3179 13.1104 38.2925 13.1104Q37.2488 13.1104 36.3882 13.8916Q35.5276 14.6729 35.3262 15.9241L33.9407 24.2188L30.718 24.2188ZM55.7961 16.2292L54.4839 24.2188L51.2612 24.2188L54.2763 6.03638L57.4319 6.03638L56.2966 12.8967L56.4614 12.8967Q57.1084 11.7371 58.2314 11.0718Q59.3545 10.4065 60.9353 10.4065Q63.0471 10.4065 64.1152 11.7371Q65.1833 13.0615 64.7805 15.5334L63.3278 24.2188L60.1052 24.2188L61.4724 16.0339Q61.6921 14.6545 61.1062 13.8916Q60.5263 13.1226 59.2751 13.1226Q57.9873 13.1226 57.0168 13.9343Q56.0525 14.7461 55.7961 16.2292ZM64.6721 24.2188L66.9488 10.5835L70.1592 10.5835L67.8887 24.2188L64.6721 24.2188ZM69.0239 8.63037Q68.261 8.63037 67.7483 8.12378Q67.2417 7.61108 67.3028 6.89087Q67.376 6.15845 67.9619 5.65186Q68.5479 5.13916 69.3169 5.13916Q70.0799 5.13916 70.5803 5.65186Q71.0869 6.15845 71.0198 6.89087Q70.971 7.61108 70.3789 8.12378Q69.7869 8.63037 69.0239 8.63037ZM69.3007 24.2188L71.5712 10.5835L74.6535 10.5835L74.2628 12.8967L74.4337 12.8967Q75.0502 11.7371 76.1427 11.0718Q77.2353 10.4065 78.6024 10.4065Q79.9818 10.4065 80.8241 11.0718Q81.6725 11.7371 81.8678 12.8967L82.0143 12.8967Q82.643 11.7615 83.8393 11.084Q85.0416 10.4065 86.5309 10.4065Q88.3986 10.4065 89.3874 11.5967Q90.3822 12.7869 90.0038 15.0635L88.4779 24.2188L85.2614 24.2188L86.7201 15.564Q86.9154 14.2944 86.3295 13.7024Q85.7497 13.1104 84.7731 13.1104Q83.6195 13.1104 82.8444 13.8306Q82.0753 14.5508 81.8983 15.7166L80.4701 24.2188L77.3146 24.2188L78.7916 15.4297Q78.9503 14.3738 78.4254 13.7451Q77.9005 13.1104 76.8751 13.1104Q75.8314 13.1104 74.9708 13.8916Q74.1103 14.6729 73.9088 15.9241L72.5233 24.2188L69.3007 24.2188Z" />
      </g>
    </g>
    <path d="M61.892 5.05449L50.1277 9.57734L50.267 7.80332C50.3275 7.02832 49.492 6.50156 48.8139 6.88906L38.1334 13.077C34.3371 15.2748 32 19.3254 32 23.709C32 30.4963 37.5037 36 44.291 36C48.6746 36 52.7312 33.6629 54.9291 29.8666L61.1109 19.1861C61.5045 18.5141 60.9777 17.6725 60.1967 17.733L58.4227 17.8723L62.9455 6.10801C62.9818 6.01719 63 5.91426 63 5.81738C63 5.36328 62.6367 5 62.1826 5C62.0797 5 61.9828 5.01816 61.892 5.05449L61.892 5.05449ZM43.625 16.625C47.9052 16.625 51.375 20.0948 51.375 24.375C51.375 28.6552 47.9052 32.125 43.625 32.125C39.3448 32.125 35.875 28.6552 35.875 24.375C35.875 20.0948 39.3448 16.625 43.625 16.625L43.625 16.625ZM43.625 22.4375C43.625 21.3674 42.7576 20.5 41.6875 20.5C40.6174 20.5 39.75 21.3674 39.75 22.4375C39.75 23.5076 40.6174 24.375 41.6875 24.375C42.7576 24.375 43.625 23.5076 43.625 22.4375L43.625 22.4375ZM44.5938 28.25C45.1288 28.25 45.5625 27.8163 45.5625 27.2812C45.5625 26.7462 45.1288 26.3125 44.5938 26.3125C44.0587 26.3125 43.625 26.7462 43.625 27.2812C43.625 27.8163 44.0587 28.25 44.5938 28.25L44.5938 28.25Z" id="Shape" fill="url(#gradient_1)" fill-rule="evenodd" stroke="none" />
  </g>
</svg>